<svg xmlns="http://www.w3.org/2000/svg" viewBox="0 0 512 512">
  <defs>
    <linearGradient id="apl" x1="0" y1="0" x2="1" y2="1">
      <stop offset="0%" stop-color="#1c1c1e"/>
      <stop offset="100%" stop-color="#000"/>
    </linearGradient>
    <linearGradient id="apl2" x1="0" y1="0" x2="0" y2="1">
      <stop offset="0%" stop-color="#f5f5f7"/>
      <stop offset="100%" stop-color="#d1d1d6"/>
    </linearGradient>
  </defs>
  <rect width="512" height="512" rx="80" fill="url(#apl)"/>
  <g transform="translate(256 280)">
    <path d="M -70 0 Q -100 -60 -50 -90 Q 0 -110 30 -90 Q 60 -110 100 -90 Q 130 -60 100 0 Q 80 60 50 90 Q 0 120 -50 90 Q -80 60 -70 0 Z" fill="url(#apl2)"/>
    <path d="M 30 -120 Q 50 -150 70 -150 Q 60 -120 30 -110 Z" fill="url(#apl2)"/>
    <path d="M -50 100 L -50 120 L 50 120 L 50 100 Q 0 130 -50 100 Z" fill="url(#apl2)" opacity="0.5"/>
  </g>
  <text x="256" y="450" text-anchor="middle" font-family="Orbitron, sans-serif" font-weight="700" font-size="44" fill="#fff">App Store</text>
</svg>