<svg xmlns="http://www.w3.org/2000/svg" viewBox="0 0 512 512">
  <defs>
    <linearGradient id="ffbg" x1="0" y1="0" x2="1" y2="1">
      <stop offset="0%" stop-color="#ff6f00"/>
      <stop offset="50%" stop-color="#e53935"/>
      <stop offset="100%" stop-color="#b71c1c"/>
    </linearGradient>
    <filter id="ffglow"><feGaussianBlur stdDeviation="6"/></filter>
  </defs>
  <rect width="512" height="512" rx="80" fill="url(#ffbg)"/>
  <g transform="translate(256 256)" filter="url(#ffglow)" opacity="0.7">
    <path d="M -120 -100 Q 0 -180 120 -100 L 100 80 Q 0 140 -100 80 Z" fill="#ffd54f"/>
  </g>
  <!-- Flames -->
  <g transform="translate(256 256)">
    <path d="M -50 -60 Q -30 -100 0 -80 Q 30 -100 50 -60 Q 70 0 30 60 Q 0 80 -30 60 Q -70 0 -50 -60 Z" fill="#fff176"/>
    <path d="M -25 -30 Q -15 -55 0 -45 Q 15 -55 25 -30 Q 35 0 15 35 Q 0 45 -15 35 Q -35 0 -25 -30 Z" fill="#fff59d"/>
  </g>
  <!-- FF text -->
  <text y="180" text-anchor="middle" font-family="Orbitron, sans-serif" font-weight="900" font-size="64" fill="#fff" stroke="#000" stroke-width="3">FREE FIRE</text>
</svg>