<svg xmlns="http://www.w3.org/2000/svg" viewBox="0 0 512 512">
  <defs>
    <linearGradient id="bg" x1="0" y1="0" x2="1" y2="1">
      <stop offset="0%" stop-color="#ffb300"/>
      <stop offset="100%" stop-color="#ff6f00"/>
    </linearGradient>
    <linearGradient id="metal" x1="0" y1="0" x2="0" y2="1">
      <stop offset="0%" stop-color="#3a2a14"/>
      <stop offset="100%" stop-color="#1a1108"/>
    </linearGradient>
  </defs>
  <rect width="512" height="512" rx="80" fill="url(#bg)"/>
  <g transform="translate(256 256)">
    <!-- Helmet shape -->
    <path d="M -150 -40 Q -150 -130 -50 -150 L 50 -150 Q 150 -130 150 -40 L 150 60 Q 150 110 100 130 L 80 145 L 60 130 L -60 130 L -80 145 L -100 130 Q -150 110 -150 60 Z" fill="url(#metal)" stroke="#000" stroke-width="4"/>
    <!-- Visor -->
    <path d="M -110 -40 Q -110 -80 -50 -90 L 50 -90 Q 110 -80 110 -40 L 110 30 L -110 30 Z" fill="#0a0e1a" opacity="0.85"/>
    <path d="M -100 -30 L 100 -30 L 100 20 L -100 20 Z" fill="#00e5ff" opacity="0.3"/>
    <!-- PUBG text -->
    <text y="115" text-anchor="middle" font-family="Orbitron, sans-serif" font-weight="900" font-size="52" fill="#ffb300" stroke="#000" stroke-width="2">PUBG</text>
  </g>
</svg>